<svg width="17" height="17" viewBox="0 0 17 17" fill="none" xmlns="http://www.w3.org/2000/svg">
<path d="M12.2371 3.01772L10.8753 2.30278C9.67966 1.67568 9.08183 1.36179 8.43907 1.36179C7.79631 1.36179 7.19848 1.675 6.00283 2.30278L4.64104 3.01772C3.43382 3.65095 2.72364 4.02408 2.28379 4.5225L8.43907 7.60014L14.5944 4.5225C14.1545 4.02408 13.445 3.65095 12.2371 3.01772ZM15.0764 5.42264L8.94974 8.48667V14.9143C9.43862 14.7924 9.99491 14.501 10.8753 14.0387L12.2371 13.3237C13.7017 12.555 14.4343 12.171 14.8415 11.4799C15.248 10.7895 15.248 9.92948 15.248 8.21158V8.13192C15.248 6.84299 15.248 6.03681 15.0764 5.42264ZM7.9284 14.9143V8.48667L1.80171 5.42264C1.63013 6.03681 1.63013 6.84299 1.63013 8.13056V8.21022C1.63013 9.92948 1.63013 10.7895 2.03662 11.4799C2.4438 12.171 3.17644 12.5557 4.64104 13.3244L6.00283 14.0387C6.88323 14.501 7.43952 14.7924 7.9284 14.9143Z" fill="#363636"/>
</svg>
