<svg width="100" height="100" viewBox="0 0 100 100" fill="none" xmlns="http://www.w3.org/2000/svg">
<path opacity="0.5" d="M12.6875 48.9584C13.2125 51.9334 13.95 55.3792 14.8125 59.4042L16.5958 67.7375C18.625 77.2084 19.6417 81.9417 23.0792 84.7209C26.5167 87.5 31.3583 87.5 41.0417 87.5H58.9583C68.6417 87.5 73.4833 87.5 76.9167 84.7209C80.3583 81.9417 81.375 77.2084 83.4 67.7375L85.1875 59.4042C86.05 55.3792 86.7875 51.9334 87.3125 48.9584H12.6875Z" fill="#B7B7B7"/>
<path fill-rule="evenodd" clip-rule="evenodd" d="M38.5417 58.3334C38.5417 57.5046 38.8709 56.7097 39.4569 56.1237C40.043 55.5376 40.8379 55.2084 41.6667 55.2084H58.3333C59.1621 55.2084 59.957 55.5376 60.543 56.1237C61.1291 56.7097 61.4583 57.5046 61.4583 58.3334C61.4583 59.1622 61.1291 59.957 60.543 60.5431C59.957 61.1291 59.1621 61.4584 58.3333 61.4584H41.6667C40.8379 61.4584 40.043 61.1291 39.4569 60.5431C38.8709 59.957 38.5417 59.1622 38.5417 58.3334Z" fill="#B7B7B7"/>
<path d="M34.7083 11.1042C35.0956 10.3931 35.7437 9.86019 36.5162 9.61756C37.2886 9.37493 38.1251 9.44157 38.8493 9.80344C39.5736 10.1653 40.1292 10.7942 40.399 11.5575C40.6688 12.3209 40.6318 13.1592 40.2958 13.8958L32.65 29.1875C34.6611 29.1736 36.8639 29.1667 39.2583 29.1667H60.7417C63.1389 29.1639 65.3416 29.1708 67.35 29.1875L59.7042 13.8958C59.3416 13.1552 59.2864 12.3013 59.5507 11.5202C59.8149 10.7391 60.3772 10.0941 61.115 9.72581C61.8527 9.35748 62.7062 9.29568 63.4893 9.55386C64.2724 9.81204 64.9218 10.3693 65.2958 11.1042L74.4666 29.4458C80.1041 29.8792 83.6416 30.9875 85.925 33.8083C87.7416 36.0542 88.325 38.8458 88.1125 42.7083H87.5C87.7083 42.7083 87.9111 42.7278 88.1083 42.7667C87.9637 44.844 87.6993 46.9114 87.3166 48.9583H12.6875C12.302 46.9115 12.0349 44.8442 11.8875 42.7667C12.0899 42.7321 12.2947 42.7126 12.5 42.7083H11.8875C11.675 38.8458 12.2625 36.0542 14.075 33.8083C16.3583 30.9833 19.8958 29.8792 25.5333 29.4458L34.7083 11.1042Z" fill="#B7B7B7"/>
</svg>
