<svg width="18" height="17" viewBox="0 0 18 17" fill="none" xmlns="http://www.w3.org/2000/svg">
<path fill-rule="evenodd" clip-rule="evenodd" d="M1.78012 1.88131C1.82286 1.75285 1.91487 1.64662 2.03591 1.58597C2.15695 1.52532 2.29712 1.51522 2.42561 1.55789L2.63328 1.62734C3.05952 1.76964 3.41971 1.88948 3.70364 2.02158C4.0046 2.16184 4.26606 2.33479 4.4642 2.61055C4.66234 2.88495 4.74473 3.18795 4.78218 3.51818C4.80034 3.68704 4.81101 3.8761 4.81418 4.08537H12.1038C13.5031 4.08537 14.2024 4.08537 14.5054 4.54429C14.8077 5.00321 14.5326 5.64666 13.9811 6.93287L13.6896 7.61376C13.4323 8.21431 13.3036 8.5139 13.0476 8.68276C12.7915 8.85163 12.4654 8.85163 11.8117 8.85163H4.92176C4.99326 9.21931 5.10629 9.43447 5.2663 9.59448C5.45491 9.78309 5.71977 9.90565 6.21955 9.97306C6.73362 10.0418 7.4152 10.0432 8.39228 10.0432H13.1585C13.294 10.0432 13.4239 10.097 13.5196 10.1928C13.6154 10.2885 13.6692 10.4184 13.6692 10.5539C13.6692 10.6893 13.6154 10.8192 13.5196 10.915C13.4239 11.0107 13.294 11.0645 13.1585 11.0645H8.35483C7.42405 11.0645 6.67302 11.0645 6.08269 10.9849C5.46988 10.9032 4.95377 10.7261 4.54387 10.3169C4.13465 9.90701 3.9583 9.3909 3.87591 8.77809C3.79625 8.18775 3.79625 7.43673 3.79625 6.50595V4.6866C3.79625 4.20112 3.79625 3.87974 3.76765 3.63393C3.74041 3.40107 3.69479 3.28872 3.63556 3.20769C3.577 3.12599 3.48508 3.04632 3.27264 2.94759C3.04794 2.84342 2.74358 2.7406 2.2833 2.58672L2.10286 2.5268C1.97453 2.48392 1.86845 2.39186 1.80794 2.27083C1.74743 2.1498 1.73742 2.00971 1.78012 1.88131ZM6.3496 5.61738C6.21416 5.61738 6.08427 5.67118 5.9885 5.76695C5.89273 5.86272 5.83893 5.99261 5.83893 6.12805C5.83893 6.26349 5.89273 6.39338 5.9885 6.48915C6.08427 6.58492 6.21416 6.63872 6.3496 6.63872H8.39228C8.52772 6.63872 8.65761 6.58492 8.75338 6.48915C8.84915 6.39338 8.90295 6.26349 8.90295 6.12805C8.90295 5.99261 8.84915 5.86272 8.75338 5.76695C8.65761 5.67118 8.52772 5.61738 8.39228 5.61738H6.3496Z" fill="#363636"/>
<path d="M6.00913 12.2561C6.28001 12.2561 6.53979 12.3637 6.73133 12.5552C6.92287 12.7468 7.03048 13.0066 7.03048 13.2774C7.03048 13.5483 6.92287 13.8081 6.73133 13.9996C6.53979 14.1912 6.28001 14.2988 6.00913 14.2988C5.73826 14.2988 5.47848 14.1912 5.28694 13.9996C5.0954 13.8081 4.98779 13.5483 4.98779 13.2774C4.98779 13.0066 5.0954 12.7468 5.28694 12.5552C5.47848 12.3637 5.73826 12.2561 6.00913 12.2561ZM12.1372 12.2561C12.4081 12.2561 12.6678 12.3637 12.8594 12.5552C13.0509 12.7468 13.1585 13.0066 13.1585 13.2774C13.1585 13.5483 13.0509 13.8081 12.8594 13.9996C12.6678 14.1912 12.4081 14.2988 12.1372 14.2988C11.8663 14.2988 11.6065 14.1912 11.415 13.9996C11.2234 13.8081 11.1158 13.5483 11.1158 13.2774C11.1158 13.0066 11.2234 12.7468 11.415 12.5552C11.6065 12.3637 11.8663 12.2561 12.1372 12.2561Z" fill="#363636"/>
</svg>
