<svg width="100" height="100" viewBox="0 0 100 100" fill="none" xmlns="http://www.w3.org/2000/svg">
<path opacity="0.5" d="M8.68331 11.4625C8.95804 10.6808 9.532 10.0401 10.279 9.68147C11.026 9.32283 11.8848 9.27554 12.6666 9.55L13.9208 9.99167C16.4916 10.8958 18.6708 11.6625 20.3916 12.5042C22.225 13.4083 23.8 14.5167 24.9833 16.25C26.1583 17.9667 26.6458 19.8542 26.8666 21.925C26.9639 22.85 27.025 23.875 27.05 25H71.375C78.3958 25 84.7166 25 86.5666 27.4042C88.4166 29.8083 87.6917 33.4333 86.2458 40.6792L84.1625 50.7833C82.85 57.15 82.1958 60.3375 79.8958 62.2083C77.5958 64.0833 74.3458 64.0833 67.8416 64.0833H45.7458C34.1208 64.0833 28.3125 64.0833 24.7041 60.275C21.0958 56.4667 20.8291 52.425 20.8291 40.1667V29.325C20.8291 26.2417 20.8291 24.1792 20.6541 22.5958C20.4875 21.0833 20.2 20.325 19.8208 19.775C19.4583 19.2375 18.9041 18.7333 17.6375 18.1167C16.2916 17.4583 14.4625 16.8083 11.6791 15.8292L10.5958 15.45C10.2079 15.3144 9.85048 15.1036 9.54411 14.8297C9.23774 14.5558 8.9884 14.2242 8.81037 13.8538C8.63233 13.4834 8.5291 13.0816 8.50659 12.6712C8.48407 12.2609 8.54271 11.8501 8.67914 11.4625" fill="#B7B7B7"/>
<path d="M50.125 37.375C49.8389 37.068 49.4939 36.8217 49.1106 36.6509C48.7272 36.4801 48.3134 36.3883 47.8938 36.3809C47.4742 36.3735 47.0575 36.4507 46.6683 36.6078C46.2792 36.765 45.9258 36.9989 45.629 37.2957C45.3323 37.5924 45.0983 37.9459 44.9412 38.335C44.784 38.7241 44.7068 39.1409 44.7142 39.5605C44.7216 39.9801 44.8134 40.3939 44.9842 40.7772C45.155 41.1606 45.4013 41.5056 45.7083 41.7917L49.75 45.8333L45.7083 49.875C45.4013 50.1611 45.155 50.5061 44.9842 50.8894C44.8134 51.2728 44.7216 51.6866 44.7142 52.1062C44.7068 52.5258 44.784 52.9425 44.9412 53.3317C45.0983 53.7208 45.3323 54.0742 45.629 54.371C45.9258 54.6677 46.2792 54.9017 46.6683 55.0588C47.0575 55.216 47.4742 55.2932 47.8938 55.2858C48.3134 55.2784 48.7272 55.1866 49.1106 55.0158C49.4939 54.845 49.8389 54.5987 50.125 54.2917L54.1667 50.25L58.2083 54.2917C58.4944 54.5987 58.8394 54.845 59.2228 55.0158C59.6061 55.1866 60.0199 55.2784 60.4395 55.2858C60.8591 55.2932 61.2759 55.216 61.665 55.0588C62.0541 54.9017 62.4076 54.6677 62.7043 54.371C63.0011 54.0742 63.235 53.7208 63.3922 53.3317C63.5493 52.9425 63.6265 52.5258 63.6191 52.1062C63.6117 51.6866 63.5199 51.2728 63.3491 50.8894C63.1783 50.5061 62.932 50.1611 62.625 49.875L58.5833 45.8333L62.625 41.7917C62.932 41.5056 63.1783 41.1606 63.3491 40.7772C63.5199 40.3939 63.6117 39.9801 63.6191 39.5605C63.6265 39.1409 63.5493 38.7241 63.3922 38.335C63.235 37.9459 63.0011 37.5924 62.7043 37.2957C62.4076 36.9989 62.0541 36.765 61.665 36.6078C61.2759 36.4507 60.8591 36.3735 60.4395 36.3809C60.0199 36.3883 59.6061 36.4801 59.2228 36.6509C58.8394 36.8217 58.4944 37.068 58.2083 37.375L54.1667 41.4167L50.125 37.375ZM31.25 75C32.9076 75 34.4973 75.6585 35.6694 76.8306C36.8415 78.0027 37.5 79.5924 37.5 81.25C37.5 82.9076 36.8415 84.4973 35.6694 85.6694C34.4973 86.8415 32.9076 87.5 31.25 87.5C29.5924 87.5 28.0027 86.8415 26.8306 85.6694C25.6585 84.4973 25 82.9076 25 81.25C25 79.5924 25.6585 78.0027 26.8306 76.8306C28.0027 75.6585 29.5924 75 31.25 75ZM68.75 75C70.4076 75 71.9973 75.6585 73.1694 76.8306C74.3415 78.0027 75 79.5924 75 81.25C75 82.9076 74.3415 84.4973 73.1694 85.6694C71.9973 86.8415 70.4076 87.5 68.75 87.5C67.0924 87.5 65.5027 86.8415 64.3306 85.6694C63.1585 84.4973 62.5 82.9076 62.5 81.25C62.5 79.5924 63.1585 78.0027 64.3306 76.8306C65.5027 75.6585 67.0924 75 68.75 75Z" fill="#B7B7B7"/>
</svg>
