<svg width="100" height="100" viewBox="0 0 100 100" fill="none" xmlns="http://www.w3.org/2000/svg">
<path opacity="0.5" d="M8.33337 38.0708C8.33337 58.3333 25.0834 69.1292 37.3417 78.7958C41.6667 82.2042 45.8334 85.4167 50 85.4167C54.1667 85.4167 58.3334 82.2083 62.6584 78.7917C74.9209 69.1333 91.6667 58.3333 91.6667 38.075C91.6667 17.8167 68.75 3.43749 50 22.9208C31.25 3.43749 8.33337 17.8083 8.33337 38.0708Z" fill="#B7B7B7"/>
<path d="M68.75 55.3625C58.4375 44.0458 45.8334 52.3958 45.8334 64.1625C45.8334 74.8292 53.3917 80.975 59.825 86.2125L60.0084 86.3625L61.7875 87.8208C64.1667 89.8 66.4584 91.6667 68.75 91.6667C71.0417 91.6667 73.3334 89.8 75.7125 87.8208C82.4542 82.2083 91.6667 75.9333 91.6667 64.1625C91.6667 60.3 90.3084 56.8 88.1125 54.2458C83.6334 49.0333 75.675 47.7625 68.75 55.3625Z" fill="#B7B7B7"/>
</svg>
