<svg width="17" height="17" viewBox="0 0 17 17" fill="none" xmlns="http://www.w3.org/2000/svg">
<path fill-rule="evenodd" clip-rule="evenodd" d="M15.1504 8.17073C15.1504 11.9313 12.102 14.9797 8.34142 14.9797C7.25199 14.9797 6.22248 14.7237 5.31008 14.2688C5.06914 14.144 4.79082 14.1118 4.52773 14.1783L3.01206 14.5841C2.86204 14.6241 2.70413 14.624 2.55418 14.5837C2.40423 14.5434 2.26751 14.4644 2.15775 14.3545C2.048 14.2447 1.96906 14.1079 1.92887 13.958C1.88867 13.808 1.88863 13.6501 1.92876 13.5001L2.33389 11.9844C2.39998 11.7215 2.36752 11.4434 2.24265 11.2028C1.77395 10.2608 1.53081 9.22281 1.53248 8.17073C1.53248 4.41015 4.58084 1.36179 8.34142 1.36179C12.102 1.36179 15.1504 4.41015 15.1504 8.17073ZM5.2774 7.56337C5.2774 8.49552 6.1755 9.47328 6.99938 10.1739C7.55976 10.6505 7.84028 10.8895 8.34142 10.8895C8.84256 10.8895 9.12309 10.6512 9.68346 10.1739C10.5073 9.4726 11.4054 8.49552 11.4054 7.56337C11.4054 5.74062 9.72023 5.06041 8.34142 6.46849C6.96261 5.06041 5.2774 5.74062 5.2774 7.56337Z" fill="#363636"/>
</svg>
