<svg width="165" height="40" viewBox="0 0 165 40" fill="none" xmlns="http://www.w3.org/2000/svg">
<path d="M20 37.0757C29.325 37.0757 37.0757 29.3414 37.0757 20C37.0757 10.675 29.3078 2.92429 19.9828 2.92429C10.6421 2.92429 2.92499 10.675 2.92499 20C2.92499 29.3414 10.6586 37.0757 20 37.0757ZM20.0007 34.23C12.0978 34.23 5.7857 27.9014 5.7857 20C5.7857 12.1143 12.0807 5.77 19.9828 5.77C27.8678 5.77 34.2121 12.115 34.2293 20C34.2457 27.9021 27.8843 34.23 19.9993 34.23M19.9993 30.8814C22.6443 30.8814 24.9543 28.0193 24.9543 24.955C24.9543 24.4529 24.8878 24.0514 24.7036 23.7164C24.9878 23.7836 25.2557 23.8507 25.5236 23.9343C26.1764 24.1014 26.3607 24.37 26.2771 24.9386L25.5907 29.4421C25.4907 29.9607 25.825 30.2957 26.2771 30.2957C26.7128 30.2957 26.93 30.0114 26.9971 29.5421L27.75 24.6707C27.9514 23.5829 27.4993 22.98 26.2936 22.6786L22.1586 21.7071V21.6071C22.5771 21.4064 22.8286 21.0214 22.9457 20.5857L25.7414 20.1843C26.9128 20.0164 27.4321 19.3636 27.4321 18.2257V14.9779C27.4321 14.5257 27.1814 14.2579 26.7121 14.2579C26.2771 14.2579 26.0264 14.5257 26.0264 14.9779V17.9243C26.0264 18.5936 25.6578 18.8114 25.055 18.9121L22.9957 19.1964C22.9024 18.8988 22.7068 18.6437 22.4436 18.4764V18.3764C24.0671 18.075 24.8543 17.1207 24.8543 15.6807C24.852 14.5224 24.4297 13.4042 23.6657 12.5336L23.7493 12.4664C24.67 11.7971 24.8207 10.8257 24.2178 9.805L23.6657 8.88357C23.4814 8.56571 23.28 8.43214 22.9793 8.43214C22.5936 8.43214 22.3264 8.7 22.3264 9.06786C22.3174 9.22194 22.3585 9.3748 22.4436 9.50357L22.9457 10.2736C23.23 10.7093 23.3307 11.1271 22.9793 11.4286C22.8899 11.4946 22.8059 11.5674 22.7278 11.6464C21.9078 11.1107 20.9028 10.8093 19.9993 10.8093C19.045 10.8093 18.0407 11.1107 17.3043 11.6464C17.2168 11.5724 17.1328 11.4942 17.0528 11.4121C16.7686 11.1607 16.7686 10.7586 17.0693 10.2736L17.5714 9.50357C17.6721 9.33571 17.7057 9.23571 17.7057 9.06786C17.7057 8.7 17.4207 8.43214 17.0357 8.43214C16.7514 8.43214 16.55 8.56571 16.3828 8.88429L15.7971 9.805C15.2114 10.8264 15.3114 11.9143 16.2828 12.4664L16.3493 12.5164C15.5777 13.3905 15.1495 14.5148 15.1443 15.6807C15.1443 17.1207 15.9314 18.075 17.5386 18.3764V18.4764C17.2843 18.6496 17.0956 18.9031 17.0028 19.1964L14.9436 18.9121C14.3243 18.8114 13.9721 18.5936 13.9721 17.9243V14.9779C13.9721 14.5257 13.7214 14.2579 13.2693 14.2579C12.8171 14.2579 12.5493 14.5257 12.5493 14.9779V18.2257C12.5493 19.3636 13.085 20.0164 14.2564 20.1843L17.0357 20.5857C17.1536 21.0214 17.4214 21.4064 17.8228 21.6071V21.7071L13.6878 22.6786C12.4993 22.98 12.0471 23.5829 12.2307 24.6707L12.985 29.5421C13.0686 30.0114 13.2693 30.2957 13.7207 30.2957C14.1564 30.2957 14.4914 29.9607 14.3907 29.4421L13.705 24.9386C13.6207 24.3693 13.805 24.1014 14.4578 23.9343C14.7421 23.8507 15.01 23.7836 15.2778 23.7164C15.1107 24.0514 15.0271 24.4529 15.0271 24.955C15.0271 28.0193 17.3371 30.8814 19.9986 30.8814" fill="#FFAF53"/>
<path d="M47.6992 11.5117C46.4805 11.918 45.5391 12.582 44.875 13.5039C44.2188 14.418 43.8906 15.5547 43.8906 16.9141C43.8906 17.4297 43.9453 17.8359 44.0547 18.1328C44.0781 18.2188 44.1172 18.3047 44.1719 18.3906C44.2031 18.4453 44.2188 18.5039 44.2188 18.5664C43.4062 18.5664 42.7852 18.4023 42.3555 18.0742C41.8867 17.7148 41.6523 17.1523 41.6523 16.3867C41.6523 15.8867 41.7539 15.3789 41.957 14.8633C42.1602 14.3477 42.4492 13.8477 42.8242 13.3633C43.1914 12.8945 43.6172 12.457 44.1016 12.0508C44.5938 11.6367 45.125 11.2773 45.6953 10.9727C46.2656 10.6602 46.8555 10.4219 47.4648 10.2578C48.082 10.0859 48.6914 10 49.293 10C49.8867 10 50.4922 10.1133 51.1094 10.3398L50.5586 22.9844L55.8438 10.3398H59.3008L56.7812 28H53.3242L54.8594 17.2188L50.3477 28H47.0547L47.5352 17.1719L43.5273 28H41.6055L47.6992 11.5117ZM63.2852 34C62.9102 34 62.5586 33.9492 62.2305 33.8477C61.9102 33.7539 61.6328 33.6094 61.3984 33.4141C61.1484 33.2188 60.9531 32.9727 60.8125 32.6758C60.6719 32.3867 60.6016 32.0508 60.6016 31.668C60.6016 30.7617 61.0273 29.9844 61.8789 29.3359C62.5195 28.8594 63.3984 28.4453 64.5156 28.0938L64.8086 26.8047C64.3398 27.3203 63.832 27.6836 63.2852 27.8945C62.8633 28.0586 62.4102 28.1406 61.9258 28.1406C61.1602 28.1406 60.5547 27.9141 60.1094 27.4609C59.6094 26.9609 59.3594 26.2305 59.3594 25.2695C59.3594 24.8164 59.4219 24.293 59.5469 23.6992L61.1758 16H64.6328L62.9102 24.1562C62.8633 24.3516 62.8398 24.5547 62.8398 24.7656C62.8398 25.0703 62.8906 25.3125 62.9922 25.4922C63.1094 25.7109 63.2969 25.8203 63.5547 25.8203C63.9766 25.8203 64.3555 25.6328 64.6914 25.2578C64.9805 24.9375 65.2266 24.4688 65.4297 23.8516L67.1055 16H70.5625L68.1836 27.1328C68.9414 26.8828 69.5469 26.5078 70 26.0078C70.4922 25.4688 70.8945 24.6992 71.207 23.6992H72.2148C71.7852 25.1211 71.1445 26.2188 70.293 26.9922C69.668 27.5547 68.8945 27.9531 67.9727 28.1875L67.6094 29.9219C67.3047 31.4531 66.6953 32.5625 65.7812 33.25C65.1172 33.75 64.2852 34 63.2852 34ZM62.7344 32.125C62.9766 32.125 63.2344 31.9492 63.5078 31.5977C63.7734 31.2539 63.9805 30.7188 64.1289 29.9922L64.2695 29.3008C63.543 29.5742 63 29.8516 62.6406 30.1328C62.1641 30.4922 61.9258 30.8945 61.9258 31.3398C61.9258 31.5508 61.9922 31.7266 62.125 31.8672C62.2734 32.0391 62.4766 32.125 62.7344 32.125ZM73.0469 15.1094H76.5039L76.1172 16.9141C76.9297 16.2266 77.8633 15.8828 78.918 15.8828C79.8164 15.8828 80.5117 16.1562 81.0039 16.7031C81.5664 17.3438 81.8477 18.332 81.8477 19.668C81.8477 20.957 81.6836 22.168 81.3555 23.3008C80.9414 24.7461 80.3398 25.8672 79.5508 26.6641C78.582 27.6484 77.3789 28.1406 75.9414 28.1406C75.3867 28.1406 74.9297 28.0547 74.5703 27.8828C74.2969 27.7578 74.0742 27.5586 73.9023 27.2852L72.6602 33.1328L69.0391 34L73.0469 15.1094ZM75.2031 26.0547C75.9766 26.0547 76.6406 25.6602 77.1953 24.8711C77.6328 24.2539 77.9844 23.3867 78.25 22.2695C78.4609 21.3711 78.5664 20.4805 78.5664 19.5977C78.5664 18.8086 78.4219 18.2461 78.1328 17.9102C77.9453 17.707 77.6875 17.6055 77.3594 17.6055C77.0703 17.6055 76.7773 17.707 76.4805 17.9102C76.1836 18.1133 75.9258 18.4062 75.707 18.7891L74.2891 25.5039C74.3438 25.6602 74.4453 25.793 74.5938 25.9023C74.75 26.0039 74.9531 26.0547 75.2031 26.0547ZM85.7031 28.1406C84.7891 28.1406 84.0508 27.8555 83.4883 27.2852C82.832 26.6133 82.5039 25.6133 82.5039 24.2852C82.5039 23.7227 82.5625 23.1289 82.6797 22.5039C82.7891 21.8789 82.9531 21.2617 83.1719 20.6523C83.6719 19.2773 84.3555 18.168 85.2227 17.3242C86.2227 16.3633 87.375 15.8828 88.6797 15.8828C89.3281 15.8828 89.8125 15.9961 90.1328 16.2227C90.4609 16.4414 90.625 16.7344 90.625 17.1016V17.2773L90.8828 16H94.3398L92.6172 24.1562C92.5469 24.3906 92.5117 24.6484 92.5117 24.9297C92.5117 25.6172 92.8398 25.9609 93.4961 25.9609C93.9336 25.9609 94.332 25.7383 94.6914 25.293C94.9961 24.918 95.2461 24.3867 95.4414 23.6992H96.4492C96.0195 24.918 95.5 25.8828 94.8906 26.5938C94.375 27.1797 93.793 27.6016 93.1445 27.8594C92.668 28.0469 92.1641 28.1406 91.6328 28.1406C90.9531 28.1406 90.4102 27.957 90.0039 27.5898C89.6055 27.2148 89.3633 26.6641 89.2773 25.9375C88.8242 26.5781 88.3477 27.0781 87.8477 27.4375C87.207 27.9062 86.4922 28.1406 85.7031 28.1406ZM87.2617 25.8203C87.4414 25.8203 87.6289 25.7734 87.8242 25.6797C88.0273 25.5859 88.2227 25.4531 88.4102 25.2812C88.832 24.875 89.1133 24.3477 89.2539 23.6992L90.4023 18.2852C90.4023 18.207 90.3828 18.1172 90.3438 18.0156C90.3125 17.9062 90.2656 17.8047 90.2031 17.7109C90.0156 17.4844 89.7539 17.3711 89.418 17.3711C89.0977 17.3711 88.7852 17.4766 88.4805 17.6875C88.1836 17.8984 87.9023 18.1914 87.6367 18.5664C87.168 19.2461 86.7812 20.1328 86.4766 21.2266C86.3359 21.7109 86.2305 22.1914 86.1602 22.668C86.0898 23.1367 86.0547 23.5625 86.0547 23.9453C86.0547 24.7422 86.2031 25.2812 86.5 25.5625C86.6016 25.6719 86.7148 25.7422 86.8398 25.7734C86.9648 25.8047 87.1055 25.8203 87.2617 25.8203ZM99.0977 28.0938C97.7852 28.0938 96.7773 27.6875 96.0742 26.875C95.4336 26.1328 95.1133 25.1016 95.1133 23.7812C95.1133 23.3516 95.1641 22.8242 95.2656 22.1992C95.3594 21.5664 95.4961 20.8867 95.6758 20.1602C96.0664 18.5977 96.5859 17.0703 97.2344 15.5781C97.9531 13.9375 98.7422 12.625 99.6016 11.6406C100.57 10.5312 101.555 9.97656 102.555 9.97656C103.391 9.97656 104.031 10.2266 104.477 10.7266C104.953 11.2734 105.191 12.1211 105.191 13.2695C105.191 14.1758 104.969 15.2031 104.523 16.3516C104.188 17.2188 103.758 18.1094 103.234 19.0234C103.57 19.1875 103.871 19.4258 104.137 19.7383C104.832 19.7383 105.621 19.5742 106.504 19.2461C107.293 18.9648 107.969 18.625 108.531 18.2266L108.754 18.8828C108.309 19.3516 107.734 19.7578 107.031 20.1016C106.328 20.4375 105.547 20.6797 104.688 20.8281C104.773 21.125 104.816 21.5234 104.816 22.0234C104.816 22.8203 104.688 23.582 104.43 24.3086C104.172 25.0352 103.797 25.6797 103.305 26.2422C102.797 26.8281 102.184 27.2852 101.465 27.6133C100.754 27.9336 99.9648 28.0938 99.0977 28.0938ZM100.152 25.9375C100.527 25.9375 100.871 25.8398 101.184 25.6445C101.496 25.4492 101.762 25.1797 101.98 24.8359C102.191 24.5156 102.352 24.1602 102.461 23.7695C102.57 23.3711 102.625 22.9727 102.625 22.5742C102.625 21.9805 102.555 21.543 102.414 21.2617C102.258 21.3164 102.125 21.3555 102.016 21.3789C101.914 21.3945 101.758 21.4023 101.547 21.4023C101.164 21.4023 100.859 21.2969 100.633 21.0859C100.414 20.875 100.305 20.5859 100.305 20.2188C100.305 19.7422 100.465 19.3828 100.785 19.1406C101.043 18.9453 101.441 18.8281 101.98 18.7891C102.41 18.0156 102.797 17.1055 103.141 16.0586C103.484 14.9883 103.656 14.0234 103.656 13.1641C103.656 12.6797 103.594 12.3398 103.469 12.1445C103.352 11.9492 103.152 11.8516 102.871 11.8516C102.621 11.8516 102.367 11.9844 102.109 12.25C101.852 12.5156 101.598 12.8867 101.348 13.3633C100.895 14.2461 100.449 15.4219 100.012 16.8906C99.6367 18.1328 99.3164 19.4688 99.0508 20.8984C98.8086 22.1797 98.6875 23.1641 98.6875 23.8516C98.6875 24.5 98.8008 25 99.0273 25.3516C99.2695 25.7422 99.6445 25.9375 100.152 25.9375ZM109.668 28.1406C108.488 28.1406 107.578 27.8438 106.938 27.25C106.258 26.6172 105.918 25.6445 105.918 24.332C105.918 23.8398 105.969 23.293 106.07 22.6914C106.164 22.0898 106.309 21.4883 106.504 20.8867C106.723 20.2148 107 19.5781 107.336 18.9766C107.68 18.375 108.078 17.8438 108.531 17.3828C109.578 16.3203 110.867 15.7891 112.398 15.7891C113.375 15.7891 114.086 16.0234 114.531 16.4922C114.875 16.8594 115.047 17.3906 115.047 18.0859C115.047 18.7656 114.898 19.4062 114.602 20.0078C114.305 20.6016 113.895 21.1289 113.371 21.5898C112.848 22.043 112.254 22.4062 111.59 22.6797C110.926 22.9453 110.238 23.1016 109.527 23.1484C109.488 23.5547 109.469 23.875 109.469 24.1094C109.469 24.8906 109.617 25.4297 109.914 25.7266C110.172 25.9922 110.602 26.125 111.203 26.125C112.07 26.125 112.863 25.8906 113.582 25.4219C113.887 25.2266 114.18 24.9961 114.461 24.7305C114.742 24.457 115.07 24.1133 115.445 23.6992H116.266C115.508 24.9805 114.637 26 113.652 26.7578C112.441 27.6797 111.113 28.1406 109.668 28.1406ZM109.715 22C110.16 21.9688 110.594 21.8398 111.016 21.6133C111.438 21.3867 111.812 21.0898 112.141 20.7227C112.469 20.3477 112.727 19.9297 112.914 19.4688C113.102 19 113.195 18.5234 113.195 18.0391C113.195 17.7188 113.148 17.4766 113.055 17.3125C112.969 17.1406 112.816 17.0547 112.598 17.0547C112.309 17.0547 112.016 17.1953 111.719 17.4766C111.43 17.7578 111.148 18.1445 110.875 18.6367C110.625 19.0977 110.398 19.6211 110.195 20.207C109.992 20.793 109.832 21.3906 109.715 22ZM121.68 14.8281C120.688 14.8281 119.918 14.6445 119.371 14.2773C118.832 13.9102 118.562 13.4062 118.562 12.7656C118.562 12.2422 118.707 11.8203 118.996 11.5C119.285 11.1719 119.676 11.0078 120.168 11.0078C120.637 11.0078 121 11.1211 121.258 11.3477C121.523 11.5664 121.656 11.8867 121.656 12.3086C121.656 12.4961 121.629 12.6641 121.574 12.8125C121.473 13.0938 121.309 13.3086 121.082 13.457C121.27 13.5195 121.59 13.5508 122.043 13.5508C122.809 13.5508 123.488 13.3555 124.082 12.9648C124.793 12.5039 125.348 11.7617 125.746 10.7383H126.754C126.23 12.2461 125.531 13.3242 124.656 13.9727C123.883 14.543 122.891 14.8281 121.68 14.8281ZM117.824 28.1406C117.059 28.1406 116.453 27.9141 116.008 27.4609C115.508 26.9609 115.258 26.2305 115.258 25.2695C115.258 24.8164 115.32 24.293 115.445 23.6992L117.074 16H120.531L118.809 24.1562C118.762 24.3984 118.738 24.625 118.738 24.8359C118.738 25.4922 118.977 25.8203 119.453 25.8203C119.891 25.8203 120.285 25.6211 120.637 25.2227C120.918 24.8867 121.164 24.3789 121.375 23.6992L123.004 16H126.461L124.738 24.1562C124.668 24.3906 124.633 24.6484 124.633 24.9297C124.633 25.2578 124.711 25.4883 124.867 25.6211C125.023 25.7539 125.273 25.8203 125.617 25.8203C126.062 25.8203 126.461 25.6211 126.812 25.2227C127.125 24.8711 127.375 24.3633 127.562 23.6992H128.57C128.141 24.918 127.621 25.8828 127.012 26.5938C126.496 27.1797 125.914 27.6016 125.266 27.8594C124.789 28.0469 124.285 28.1406 123.754 28.1406C123.066 28.1406 122.52 27.9492 122.113 27.5664C121.707 27.1836 121.461 26.6172 121.375 25.8672C120.828 26.7422 120.211 27.3672 119.523 27.7422C119.031 28.0078 118.465 28.1406 117.824 28.1406ZM136.27 28.1406C135.348 28.1406 134.637 27.8828 134.137 27.3672C133.91 27.1406 133.738 26.875 133.621 26.5703C133.504 26.2578 133.445 25.9336 133.445 25.5977C133.445 25.3008 133.488 24.8984 133.574 24.3906C133.668 23.8828 133.809 23.1641 133.996 22.2344H131.336L130.105 28H126.648L129.191 16H132.648L131.617 20.8047H134.301L135.391 16H138.602L137.336 21.9531L136.914 23.8047C136.805 24.2891 136.75 24.625 136.75 24.8125C136.75 25.4844 137.07 25.8203 137.711 25.8203C137.953 25.8203 138.164 25.7812 138.344 25.7031C138.523 25.6172 138.691 25.4844 138.848 25.3047C138.988 25.1406 139.121 24.9375 139.246 24.6953C139.379 24.4531 139.539 24.1211 139.727 23.6992H140.734C139.727 26.6602 138.238 28.1406 136.27 28.1406ZM142.105 28.1406C141.34 28.1406 140.734 27.9141 140.289 27.4609C139.789 26.9609 139.539 26.2305 139.539 25.2695C139.539 24.8164 139.602 24.293 139.727 23.6992L141.355 16H144.812L143.09 24.1562C143.043 24.3984 143.02 24.625 143.02 24.8359C143.02 25.4922 143.258 25.8203 143.734 25.8203C144.172 25.8203 144.566 25.6211 144.918 25.2227C145.199 24.8867 145.445 24.3789 145.656 23.6992L147.285 16H150.742L149.02 24.1562C148.949 24.3906 148.914 24.6484 148.914 24.9297C148.914 25.2578 148.992 25.4883 149.148 25.6211C149.305 25.7539 149.555 25.8203 149.898 25.8203C150.344 25.8203 150.742 25.6211 151.094 25.2227C151.406 24.8711 151.656 24.3633 151.844 23.6992H152.852C152.422 24.918 151.902 25.8828 151.293 26.5938C150.777 27.1797 150.195 27.6016 149.547 27.8594C149.07 28.0469 148.566 28.1406 148.035 28.1406C147.348 28.1406 146.801 27.9492 146.395 27.5664C145.988 27.1836 145.742 26.6172 145.656 25.8672C145.109 26.7422 144.492 27.3672 143.805 27.7422C143.312 28.0078 142.746 28.1406 142.105 28.1406ZM160.504 28.1406C159.551 28.1406 158.828 27.9062 158.336 27.4375C157.852 26.9688 157.609 26.3164 157.609 25.4805C157.609 25.207 157.656 24.7969 157.75 24.25C157.766 24.125 157.781 24.0391 157.797 23.9922C157.812 23.8359 157.828 23.7305 157.844 23.6758C157.875 23.5195 157.891 23.3594 157.891 23.1953C157.891 22.4297 157.586 22.0469 156.977 22.0469C156.773 22.0469 156.555 22.1172 156.32 22.2578L155.934 22.5391L155.441 22.9375L154.387 28H150.93L153.496 16H156.953L155.922 20.7578C156.438 20.2422 156.938 19.7227 157.422 19.1992L157.598 19C158.527 18 159.16 17.332 159.496 16.9961C160.051 16.4414 160.574 16.082 161.066 15.918C161.34 15.832 161.625 15.7891 161.922 15.7891C162.461 15.7891 162.871 15.9375 163.152 16.2344C163.434 16.5234 163.574 16.9023 163.574 17.3711C163.574 17.8633 163.441 18.2461 163.176 18.5195C162.918 18.793 162.547 18.9297 162.062 18.9297C161.617 18.9297 161.277 18.793 161.043 18.5195C160.832 18.2852 160.734 18.0117 160.75 17.6992C160.5 17.8477 160.262 18.0234 160.035 18.2266C159.816 18.4219 159.574 18.6562 159.309 18.9297L159.074 19.1875C158.965 19.2969 158.816 19.4609 158.629 19.6797C158.434 19.9062 158.195 20.1602 157.914 20.4414C158.188 20.3789 158.523 20.3477 158.922 20.3477C159.75 20.3477 160.348 20.5391 160.715 20.9219C161.043 21.2578 161.207 21.8086 161.207 22.5742C161.207 22.832 161.16 23.2109 161.066 23.7109C161.027 23.9062 160.992 24.1133 160.961 24.332C160.93 24.543 160.914 24.7422 160.914 24.9297C160.914 25.5234 161.234 25.8203 161.875 25.8203C162.117 25.8203 162.324 25.7812 162.496 25.7031C162.676 25.6172 162.84 25.4844 162.988 25.3047C163.129 25.1406 163.266 24.9336 163.398 24.6836C163.531 24.4336 163.688 24.1055 163.867 23.6992H164.875C163.867 26.6602 162.41 28.1406 160.504 28.1406Z" fill="#FFAF53"/>
</svg>
