<svg width="16" height="16" viewBox="0 0 16 16" fill="none" xmlns="http://www.w3.org/2000/svg">
<path d="M6.99999 1.33333C8.06396 1.33326 9.10647 1.63274 10.0082 2.19749C10.9099 2.76224 11.6344 3.56944 12.0988 4.52673C12.5632 5.48401 12.7487 6.5527 12.6341 7.61048C12.5194 8.66827 12.1093 9.67241 11.4507 10.508L13.8853 12.9427C14.0068 13.0684 14.074 13.2368 14.0724 13.4116C14.0709 13.5864 14.0008 13.7536 13.8772 13.8772C13.7536 14.0008 13.5864 14.0709 13.4116 14.0724C13.2368 14.074 13.0684 14.0068 12.9427 13.8853L10.508 11.4507C9.79828 12.01 8.96512 12.3915 8.078 12.5633C7.19088 12.7351 6.27553 12.6923 5.40833 12.4384C4.54112 12.1845 3.7472 11.7269 3.09281 11.1038C2.43842 10.4807 1.94252 9.71013 1.6465 8.85639C1.35049 8.00265 1.26292 7.09049 1.39112 6.19603C1.51933 5.30156 1.85957 4.45073 2.38348 3.7145C2.90738 2.97828 3.59975 2.37802 4.40282 1.9638C5.2059 1.54958 6.09638 1.33341 6.99999 1.33333ZM6.99999 2.66667C5.85071 2.66667 4.74851 3.12321 3.93586 3.93587C3.1232 4.74853 2.66665 5.85073 2.66665 7C2.66665 8.14927 3.1232 9.25147 3.93586 10.0641C4.74851 10.8768 5.85071 11.3333 6.99999 11.3333C8.14926 11.3333 9.25146 10.8768 10.0641 10.0641C10.8768 9.25147 11.3333 8.14927 11.3333 7C11.3333 5.85073 10.8768 4.74853 10.0641 3.93587C9.25146 3.12321 8.14926 2.66667 6.99999 2.66667ZM6.99999 3.33333C7.97245 3.33333 8.90508 3.71964 9.59271 4.40728C10.2803 5.09491 10.6667 6.02754 10.6667 7C10.6667 7.97246 10.2803 8.90509 9.59271 9.59273C8.90508 10.2804 7.97245 10.6667 6.99999 10.6667C6.02753 10.6667 5.09489 10.2804 4.40726 9.59273C3.71963 8.90509 3.33332 7.97246 3.33332 7C3.33332 6.02754 3.71963 5.09491 4.40726 4.40728C5.09489 3.71964 6.02753 3.33333 6.99999 3.33333Z" fill="white"/>
</svg>
