<svg width="18" height="17" viewBox="0 0 18 17" fill="none" xmlns="http://www.w3.org/2000/svg">
<path fill-rule="evenodd" clip-rule="evenodd" d="M15.7968 8.17073C15.7968 11.9313 12.7484 14.9797 8.98784 14.9797C5.22726 14.9797 2.17889 11.9313 2.17889 8.17073C2.17889 4.41015 5.22726 1.36179 8.98784 1.36179C12.7484 1.36179 15.7968 4.41015 15.7968 8.17073ZM11.0305 6.12805C11.0305 6.6698 10.8153 7.18937 10.4322 7.57244C10.0492 7.95552 9.52959 8.17073 8.98784 8.17073C8.44608 8.17073 7.92652 7.95552 7.54344 7.57244C7.16037 7.18937 6.94515 6.6698 6.94515 6.12805C6.94515 5.5863 7.16037 5.06673 7.54344 4.68365C7.92652 4.30058 8.44608 4.08537 8.98784 4.08537C9.52959 4.08537 10.0492 4.30058 10.4322 4.68365C10.8153 5.06673 11.0305 5.5863 11.0305 6.12805ZM8.98784 13.9583C10.1564 13.9602 11.298 13.6066 12.2609 12.9445C12.6722 12.6619 12.8478 12.124 12.6082 11.6862C12.1131 10.7786 11.0918 10.2134 8.98784 10.2134C6.88387 10.2134 5.86253 10.7786 5.36684 11.6862C5.12785 12.124 5.30352 12.6619 5.71478 12.9445C6.6777 13.6066 7.81924 13.9602 8.98784 13.9583Z" fill="#363636"/>
</svg>
